<svg width="182" height="142" viewBox="0 0 182 142" fill="none" xmlns="http://www.w3.org/2000/svg">
<path d="M29.4538 108.392C30.5648 107.281 32.0577 106.656 33.62 106.656H178.224C180.863 106.656 182.182 109.85 180.307 111.69L151.733 140.264C150.622 141.375 149.13 142 147.567 142H2.9633C0.324667 142 -0.994649 138.806 0.880168 136.966L29.4538 108.392Z" fill="white"/>
<path d="M29.4538 1.73594C30.5648 0.624939 32.0577 0 33.62 0H178.224C180.863 0 182.182 3.19413 180.307 5.03423L151.733 33.5731C150.622 34.6841 149.13 35.309 147.567 35.309H2.9633C0.324667 35.309 -0.994649 32.1149 0.880168 30.2748L29.4538 1.73594Z" fill="white"/>
<path d="M151.733 54.7169C150.622 53.6059 149.13 52.9809 147.567 52.9809H2.9633C0.324667 52.9809 -0.994649 56.1751 0.880168 58.0152L29.4538 86.554C30.5648 87.665 32.0577 88.29 33.62 88.29H178.224C180.863 88.29 182.182 85.0958 180.307 83.2557L151.733 54.7169Z" fill="white"/>
</svg>
