<svg width="240" height="240" viewBox="0 0 240 240" fill="none" xmlns="http://www.w3.org/2000/svg">
<path d="M238 120C238 185.17 185.17 238 120 238C54.8304 238 2 185.17 2 120C2 54.8304 54.8304 2 120 2C185.17 2 238 54.8304 238 120Z" stroke="white" stroke-width="4"/>
<path d="M140 120C140 131.046 131.046 140 120 140C108.954 140 100 131.046 100 120C100 108.954 108.954 100 120 100C131.046 100 140 108.954 140 120Z" stroke="white" stroke-width="4"/>
<path d="M160 120C160 142.091 142.091 160 120 160C97.9086 160 80 142.091 80 120C80 97.9086 97.9086 80 120 80C142.091 80 160 97.9086 160 120Z" stroke="white" stroke-width="4"/>
<path d="M180 120C180 153.137 153.137 180 120 180C86.8629 180 60 153.137 60 120C60 86.8629 86.8629 60 120 60C153.137 60 180 86.8629 180 120Z" stroke="white" stroke-width="4"/>
<path d="M200 120C200 164.183 164.183 200 120 200C75.8172 200 40 164.183 40 120C40 75.8172 75.8172 40 120 40C164.183 40 200 75.8172 200 120Z" stroke="white" stroke-width="4"/>
<path d="M220 120C220 175.228 175.228 220 120 220C64.7715 220 20 175.228 20 120C20 64.7715 64.7715 20 120 20C175.228 20 220 64.7715 220 120Z" stroke="white" stroke-width="4"/>
</svg>
