<svg width="350" height="256" viewBox="0 0 350 256" fill="none" xmlns="http://www.w3.org/2000/svg">
<rect x="1.22434" y="1.15" width="517.626" height="253.7" stroke="white" stroke-width="2.3"/>
<mask id="mask0_201_323" style="mask-type:alpha" maskUnits="userSpaceOnUse" x="0" y="0" width="520" height="256">
<rect x="0.0743408" width="519.926" height="256" fill="#C4C4C4"/>
</mask>
<g mask="url(#mask0_201_323)">
<path d="M-88.3774 -45.2125C5.02322 -10.029 12.9533 8.6258 -64.5871 10.7519C-153.518 15.2805 -145.588 33.9353 -40.7968 66.7162C63.1162 97.4309 71.0463 116.086 -17.0064 122.681C-70.7962 121.113 -62.8661 139.768 6.78388 178.645C78.7392 222.945 86.6693 241.6 30.5742 234.609C-65.6728 232.439 -57.7427 251.094 54.3645 290.574" stroke="white" stroke-width="2.3"/>
<path d="M-53.0626 -42.868C37.8859 -9.48276 46.0708 10.518 -29.6126 12.2957C-116.405 16.3914 -108.944 35.8903 -6.1626 67.4595C94.6378 96.8849 102.561 116.867 16.6336 122.999C-36.5187 121.462 -28.2916 140.532 40.2127 178.466C110.239 221.21 117.123 239.185 64.0681 233.376C-26.8136 232.214 -20.4599 250.932 87.6374 288.115" stroke="#FCFCF4" stroke-width="2.3"/>
<path d="M-17.7499 -40.5228C70.7465 -8.93571 79.1862 12.411 5.35982 13.8405C-79.2948 17.5032 -72.3023 37.8462 28.4695 68.2037C126.157 96.3398 134.073 117.649 50.2715 123.318C-2.24322 121.812 6.28093 141.297 73.6393 178.289C141.737 219.476 147.574 236.772 97.5599 232.144C12.0435 231.99 16.8208 250.77 120.908 285.656" stroke="#F9F9EA" stroke-width="2.3"/>
<path d="M17.5612 -38.1767C103.605 -8.38787 112.3 14.3048 40.3306 15.386C-42.1858 18.6157 -35.6621 39.8029 63.0999 68.9486C157.675 95.7954 165.583 118.431 83.9077 123.638C32.0306 122.163 40.8517 142.063 107.064 178.112C173.234 217.743 178.024 234.359 131.05 230.913C50.899 231.767 54.0998 250.609 154.177 283.199" stroke="#F6F6DF" stroke-width="2.3"/>
<path d="M52.8701 -35.8297C136.462 -7.83912 145.412 16.1995 75.2991 16.9324C-5.07894 19.7292 0.975935 41.7604 97.7282 69.6944C189.191 95.2519 197.092 119.215 117.542 123.959C66.3022 122.514 75.4204 142.829 140.487 177.936C204.728 216.011 208.471 231.947 164.538 229.683C89.7523 231.545 91.3767 250.449 187.444 280.743" stroke="#F3F3D5" stroke-width="2.3"/>
<path d="M88.1766 -33.4816C169.317 -7.2893 178.521 18.0952 110.265 18.4798C32.0255 20.8437 37.6115 43.7191 132.354 70.4413C220.704 94.7095 228.598 119.999 151.174 124.281C100.571 122.867 109.987 143.597 173.908 177.761C236.22 214.28 238.917 229.537 198.024 228.454C128.603 231.323 128.651 250.29 220.709 278.287" stroke="#F0EFCA" stroke-width="2.3"/>
<path d="M123.48 -31.1325C202.168 -6.73845 211.627 19.992 145.229 20.0284C69.127 21.9593 74.2442 45.6787 166.977 71.1893C252.214 94.1681 260.101 120.785 184.802 124.605C134.838 123.22 144.55 144.366 207.325 177.587C267.709 212.549 269.359 227.127 231.506 227.225C167.451 231.103 165.923 250.133 253.97 275.833" stroke="#EDECC0" stroke-width="2.3"/>
<path d="M158.781 -28.7823C235.017 -6.18639 244.731 21.89 180.189 21.5781C106.226 23.076 110.875 47.6396 201.597 71.9384C283.722 93.6279 291.602 121.572 218.429 124.929C169.102 123.575 179.111 145.135 240.74 177.415C299.195 210.821 299.799 224.718 264.987 225.998C206.297 230.884 203.192 249.976 287.23 273.38" stroke="#E9E9B5" stroke-width="2.3"/>
<path d="M194.079 -26.4306C267.863 -5.63294 277.832 23.7894 215.147 23.1292C143.322 24.1942 147.502 49.6019 236.215 72.6889C315.227 93.0891 323.099 122.36 252.052 125.255C203.362 123.931 213.669 145.907 274.152 177.244C330.679 209.093 330.235 222.311 298.464 224.773C245.139 230.666 240.458 249.821 320.486 270.928" stroke="#E6E6AB" stroke-width="2.3"/>
<path d="M229.373 -24.0775C300.705 -5.07808 310.928 25.6903 250.101 24.6817C180.414 25.3138 184.125 51.5656 270.828 73.4409C346.728 92.5518 354.593 123.149 285.671 125.582C237.619 124.289 248.222 146.679 307.56 177.074C362.158 207.367 360.668 219.906 331.937 223.548C283.977 230.45 277.72 249.667 353.738 268.478" stroke="#E3E3A0" stroke-width="2.3"/>
<path d="M264.664 -21.7227C333.544 -4.52159 344.022 27.5927 285.051 26.2359C217.503 26.435 220.745 53.5309 305.438 74.1945C378.226 92.016 386.083 123.941 319.287 125.91C271.873 124.648 282.773 147.454 340.965 176.906C393.634 205.642 391.097 217.502 365.407 222.326C322.813 230.235 314.979 249.515 386.987 266.029" stroke="#E0E096" stroke-width="2.3"/>
<path d="M299.951 -19.3662C366.378 -3.96329 377.111 29.4969 319.997 27.7918C254.587 27.558 257.36 55.498 340.044 74.9498C409.719 91.4821 417.569 124.734 352.899 126.241C306.122 125.009 317.319 148.23 374.365 176.739C425.106 203.92 421.522 215.099 398.872 221.105C361.643 230.022 352.233 249.364 420.231 263.582" stroke="#DDDD8B" stroke-width="2.3"/>
<path d="M334.599 -16.7384C398.574 -3.13371 409.561 31.6725 354.305 29.6191C291.033 28.9522 293.337 57.7364 374.011 75.9765C440.574 91.2194 448.416 125.798 385.872 126.843C339.732 125.641 351.227 149.277 407.127 176.844C455.939 202.468 451.309 212.968 431.699 220.155C399.836 230.081 388.849 249.485 452.837 261.406" stroke="#DADA81" stroke-width="2.3"/>
<path d="M369.188 -14.0857C430.711 -2.27926 441.954 33.8729 388.555 31.4712C327.421 30.3714 329.256 59.9997 407.921 77.028C471.37 90.9817 479.206 126.887 418.787 127.469C373.285 126.299 385.076 150.35 439.831 176.974C486.715 201.042 481.038 210.862 464.468 219.231C437.97 230.164 425.407 249.631 485.385 259.256" stroke="#D7D776" stroke-width="2.3"/>
<path d="M-53.0626 -42.868C37.8859 -9.48276 46.0708 10.518 -29.6126 12.2957C-116.405 16.3914 -108.944 35.8903 -6.1626 67.4595C94.6378 96.8849 102.561 116.867 16.6336 122.999C-36.5187 121.462 -28.2916 140.532 40.2127 178.466C110.239 221.21 117.123 239.185 64.0681 233.376C-26.8136 232.214 -20.4599 250.932 87.6374 288.115" stroke="white" stroke-width="2.3"/>
<path d="M-17.7499 -40.5228C70.7465 -8.93571 79.1862 12.411 5.35982 13.8405C-79.2948 17.5032 -72.3023 37.8462 28.4695 68.2037C126.157 96.3398 134.073 117.649 50.2715 123.318C-2.24322 121.812 6.28093 141.297 73.6393 178.289C141.737 219.476 147.574 236.772 97.5599 232.144C12.0435 231.99 16.8208 250.77 120.908 285.656" stroke="white" stroke-width="2.3"/>
<path d="M17.5612 -38.1767C103.605 -8.38787 112.3 14.3048 40.3306 15.386C-42.1858 18.6157 -35.6621 39.8029 63.0999 68.9486C157.675 95.7954 165.583 118.431 83.9077 123.638C32.0306 122.163 40.8517 142.063 107.064 178.112C173.234 217.743 178.024 234.359 131.05 230.913C50.899 231.767 54.0998 250.609 154.177 283.199" stroke="white" stroke-width="2.3"/>
<path d="M52.8701 -35.8297C136.462 -7.83912 145.412 16.1995 75.2991 16.9324C-5.07894 19.7292 0.975935 41.7604 97.7282 69.6944C189.191 95.2519 197.092 119.215 117.542 123.959C66.3022 122.514 75.4204 142.829 140.487 177.936C204.728 216.011 208.471 231.947 164.538 229.683C89.7523 231.545 91.3767 250.449 187.444 280.743" stroke="white" stroke-width="2.3"/>
<path d="M88.1766 -33.4816C169.317 -7.2893 178.521 18.0952 110.265 18.4798C32.0255 20.8437 37.6115 43.7191 132.354 70.4413C220.704 94.7095 228.598 119.999 151.174 124.281C100.571 122.867 109.987 143.597 173.908 177.761C236.22 214.28 238.917 229.537 198.024 228.454C128.603 231.323 128.651 250.29 220.709 278.287" stroke="white" stroke-width="2.3"/>
<path d="M123.48 -31.1325C202.168 -6.73845 211.627 19.992 145.229 20.0284C69.127 21.9593 74.2442 45.6787 166.977 71.1893C252.214 94.1681 260.101 120.785 184.802 124.605C134.838 123.22 144.55 144.366 207.325 177.587C267.709 212.549 269.359 227.127 231.506 227.225C167.451 231.103 165.923 250.133 253.97 275.833" stroke="white" stroke-width="2.3"/>
<path d="M158.781 -28.7823C235.017 -6.18639 244.731 21.89 180.189 21.5781C106.226 23.076 110.875 47.6396 201.597 71.9384C283.722 93.6279 291.602 121.572 218.429 124.929C169.102 123.575 179.111 145.135 240.74 177.415C299.195 210.821 299.799 224.718 264.987 225.998C206.297 230.884 203.192 249.976 287.23 273.38" stroke="white" stroke-width="2.3"/>
<path d="M194.079 -26.4306C267.863 -5.63294 277.832 23.7894 215.147 23.1292C143.322 24.1942 147.502 49.6019 236.215 72.6889C315.227 93.0891 323.099 122.36 252.052 125.255C203.362 123.931 213.669 145.907 274.152 177.244C330.679 209.093 330.235 222.311 298.464 224.773C245.139 230.666 240.458 249.821 320.486 270.928" stroke="white" stroke-width="2.3"/>
<path d="M229.373 -24.0775C300.705 -5.07808 310.928 25.6903 250.101 24.6817C180.414 25.3138 184.125 51.5656 270.828 73.4409C346.728 92.5518 354.593 123.149 285.671 125.582C237.619 124.289 248.222 146.679 307.56 177.074C362.158 207.367 360.668 219.906 331.937 223.548C283.977 230.45 277.72 249.667 353.738 268.478" stroke="white" stroke-width="2.3"/>
<path d="M264.664 -21.7227C333.544 -4.52159 344.022 27.5927 285.051 26.2359C217.503 26.435 220.745 53.5309 305.438 74.1945C378.226 92.016 386.083 123.941 319.287 125.91C271.873 124.648 282.773 147.454 340.965 176.906C393.634 205.642 391.097 217.502 365.407 222.326C322.813 230.235 314.979 249.515 386.987 266.029" stroke="white" stroke-width="2.3"/>
<path d="M299.951 -19.3662C366.378 -3.96329 377.111 29.4969 319.997 27.7918C254.587 27.558 257.36 55.498 340.044 74.9498C409.719 91.4821 417.569 124.734 352.899 126.241C306.122 125.009 317.319 148.23 374.365 176.739C425.106 203.92 421.522 215.099 398.872 221.105C361.643 230.022 352.233 249.364 420.231 263.582" stroke="white" stroke-width="2.3"/>
<path d="M334.599 -16.7384C398.574 -3.13371 409.561 31.6725 354.305 29.6191C291.033 28.9522 293.337 57.7364 374.011 75.9765C440.574 91.2194 448.416 125.798 385.872 126.843C339.732 125.641 351.227 149.277 407.127 176.844C455.939 202.468 451.309 212.968 431.699 220.155C399.836 230.081 388.849 249.485 452.837 261.406" stroke="white" stroke-width="2.3"/>
<path d="M369.188 -14.0857C430.711 -2.27926 441.954 33.8729 388.555 31.4712C327.421 30.3714 329.256 59.9997 407.921 77.028C471.37 90.9817 479.206 126.887 418.787 127.469C373.285 126.299 385.076 150.35 439.831 176.974C486.715 201.042 481.038 210.862 464.468 219.231C437.97 230.164 425.407 249.631 485.385 259.256" stroke="white" stroke-width="2.3"/>
</g>
</svg>
